<svg xmlns="http://www.w3.org/2000/svg" version="1.1" xmlns:xlink="http://www.w3.org/1999/xlink" xmlns:svgjs="http://svgjs.dev/svgjs" width="2000" height="1500" viewBox="0 0 2000 1500"><rect width="2000" height="1500" fill="#000000"></rect><g transform="matrix(0.75,0,0,0.75,249.090909090909,282.7536437246963)"><svg viewBox="0 0 396 247" data-background-color="#000000" preserveAspectRatio="xMidYMid meet" height="1247" width="2000" xmlns="http://www.w3.org/2000/svg" xmlns:xlink="http://www.w3.org/1999/xlink"><g id="tight-bounds" transform="matrix(1,0,0,1,0.2400000000000091,-0.09999999999999432)"><svg viewBox="0 0 395.52 247.2" height="247.2" width="395.52"><g><svg></svg></g><g><svg viewBox="0 0 395.52 247.2" height="247.2" width="395.52"><g transform="matrix(1,0,0,1,75.54432,96.84993471884762)"><svg viewBox="0 0 244.43135999999998 53.500130562304754" height="53.500130562304754" width="244.43135999999998"><g><svg viewBox="0 0 324.3694944078904 70.99666058091285" height="53.500130562304754" width="244.43135999999998"><g transform="matrix(1,0,0,1,79.93813440789039,0)"><svg viewBox="0 0 244.43135999999998 70.99666058091285" height="70.99666058091285" width="244.43135999999998"><g id="textblocktransform"><svg viewBox="0 0 244.43135999999998 70.99666058091285" height="70.99666058091285" width="244.43135999999998" id="textblock"><g><svg viewBox="0 0 244.43135999999998 70.99666058091285" height="70.99666058091285" width="244.43135999999998"><g transform="matrix(1,0,0,1,0,0)"><svg width="244.43135999999998" viewBox="1.7999999999999998 -28 96.39 28" height="70.99666058091285" data-palette-color="#ffffff"><path d="M18-12Q18.2-11.2 18.2-10L18.2-10Q18.2-8.85 18-8L18-8Q18.2-7.2 18.2-6L18.2-6Q18.2-4.85 18-4L18-4 16-4Q16.2-3.2 16.2-2L16.2-2Q16.2-0.85 16 0L16 0 4 0Q3.8-0.85 3.8-2L3.8-2Q3.8-3.2 4-4L4-4 2-4Q1.8-4.85 1.8-6L1.8-6Q1.8-7.2 2-8L2-8 6-8Q6.2-7.2 6.2-6L6.2-6Q6.2-4.85 6-4L6-4 14-4Q13.8-4.85 13.8-6L13.8-6Q13.8-7.2 14-8L14-8Q13.8-8.85 13.8-10L13.8-10Q13.8-11.2 14-12L14-12 4-12Q3.8-12.85 3.8-14L3.8-14Q3.8-15.2 4-16L4-16 2-16Q1.8-16.85 1.8-18L1.8-18Q1.8-19.2 2-20L2-20Q1.8-20.85 1.8-22L1.8-22Q1.8-23.2 2-24L2-24 4-24Q3.8-24.85 3.8-26L3.8-26Q3.8-27.2 4-28L4-28 16-28Q16.2-27.2 16.2-26L16.2-26Q16.2-24.85 16-24L16-24 18-24Q18.2-23.2 18.2-22L18.2-22Q18.2-20.85 18-20L18-20 14-20Q13.8-20.85 13.8-22L13.8-22Q13.8-23.2 14-24L14-24 6-24Q6.2-23.2 6.2-22L6.2-22Q6.2-20.85 6-20L6-20Q6.2-19.2 6.2-18L6.2-18Q6.2-16.85 6-16L6-16 16-16Q16.2-15.2 16.2-14L16.2-14Q16.2-12.85 16-12L16-12 18-12ZM38-24Q38.2-23.2 38.2-22L38.2-22Q38.2-20.85 38-20L38-20Q38.2-19.2 38.2-18L38.2-18Q38.2-16.85 38-16L38-16Q38.2-15.2 38.2-14L38.2-14Q38.2-12.85 38-12L38-12 36.5-12Q36.7-11.2 36.7-10L36.7-10Q36.7-8.85 36.5-8L36.5-8Q36.7-7.2 36.7-6L36.7-6Q36.7-4.85 36.5-4L36.5-4 35.5-4Q35.7-3.2 35.7-2L35.7-2Q35.7-0.85 35.5 0L35.5 0 32.5 0Q32.3-0.85 32.3-2L32.3-2Q32.3-3.2 32.5-4L32.5-4 31.5-4Q31.3-4.85 31.3-6L31.3-6Q31.3-7.2 31.5-8L31.5-8 28.5-8Q28.7-7.2 28.7-6L28.7-6Q28.7-4.85 28.5-4L28.5-4 27.5-4Q27.7-3.2 27.7-2L27.7-2Q27.7-0.85 27.5 0L27.5 0 24.5 0Q24.3-0.85 24.3-2L24.3-2Q24.3-3.2 24.5-4L24.5-4 23.5-4Q23.3-4.85 23.3-6L23.3-6Q23.3-7.2 23.5-8L23.5-8Q23.3-8.85 23.3-10L23.3-10Q23.3-11.2 23.5-12L23.5-12 22-12Q21.8-12.85 21.8-14L21.8-14Q21.8-15.2 22-16L22-16Q21.8-16.85 21.8-18L21.8-18Q21.8-19.2 22-20L22-20Q21.8-20.85 21.8-22L21.8-22Q21.8-23.2 22-24L22-24Q21.8-24.85 21.8-26L21.8-26Q21.8-27.2 22-28L22-28 26-28Q26.2-27.2 26.2-26L26.2-26Q26.2-24.85 26-24L26-24Q26.2-23.2 26.2-22L26.2-22Q26.2-20.85 26-20L26-20Q26.2-19.2 26.2-18L26.2-18Q26.2-16.85 26-16L26-16Q26.2-15.2 26.2-14L26.2-14Q26.2-12.85 26-12L26-12Q26.2-11.2 26.2-10L26.2-10Q26.2-8.85 26-8L26-8 27.5-8Q27.3-8.85 27.3-10L27.3-10Q27.3-11.2 27.5-12L27.5-12 28.5-12Q28.3-12.85 28.3-14L28.3-14Q28.3-15.2 28.5-16L28.5-16Q28.3-16.85 28.3-18L28.3-18Q28.3-19.2 28.5-20L28.5-20Q28.3-20.85 28.3-22L28.3-22Q28.3-23.2 28.5-24L28.5-24Q28.3-24.85 28.3-26L28.3-26Q28.3-27.2 28.5-28L28.5-28 31.5-28Q31.7-27.2 31.7-26L31.7-26Q31.7-24.85 31.5-24L31.5-24Q31.7-23.2 31.7-22L31.7-22Q31.7-20.85 31.5-20L31.5-20Q31.7-19.2 31.7-18L31.7-18Q31.7-16.85 31.5-16L31.5-16Q31.7-15.2 31.7-14L31.7-14Q31.7-12.85 31.5-12L31.5-12 32.5-12Q32.7-11.2 32.7-10L32.7-10Q32.7-8.85 32.5-8L32.5-8 34-8Q33.8-8.85 33.8-10L33.8-10Q33.8-11.2 34-12L34-12Q33.8-12.85 33.8-14L33.8-14Q33.8-15.2 34-16L34-16Q33.8-16.85 33.8-18L33.8-18Q33.8-19.2 34-20L34-20Q33.8-20.85 33.8-22L33.8-22Q33.8-23.2 34-24L34-24Q33.8-24.85 33.8-26L33.8-26Q33.8-27.2 34-28L34-28 38-28Q38.2-27.2 38.2-26L38.2-26Q38.2-24.85 38-24L38-24ZM52-4L55-4Q55.2-3.2 55.2-2L55.2-2Q55.2-0.85 55 0L55 0 45 0Q44.8-0.85 44.8-2L44.8-2Q44.8-3.2 45-4L45-4 48-4Q47.8-4.85 47.8-6L47.8-6Q47.8-7.2 48-8L48-8Q47.8-8.85 47.8-10L47.8-10Q47.8-11.2 48-12L48-12Q47.8-12.85 47.8-14L47.8-14Q47.8-15.2 48-16L48-16Q47.8-16.85 47.8-18L47.8-18Q47.8-19.2 48-20L48-20Q47.8-20.85 47.8-22L47.8-22Q47.8-23.2 48-24L48-24 45-24Q44.8-24.85 44.8-26L44.8-26Q44.8-27.2 45-28L45-28 55-28Q55.2-27.2 55.2-26L55.2-26Q55.2-24.85 55-24L55-24 52-24Q52.2-23.2 52.2-22L52.2-22Q52.2-20.85 52-20L52-20Q52.2-19.2 52.2-18L52.2-18Q52.2-16.85 52-16L52-16Q52.2-15.2 52.2-14L52.2-14Q52.2-12.85 52-12L52-12Q52.2-11.2 52.2-10L52.2-10Q52.2-8.85 52-8L52-8Q52.2-7.2 52.2-6L52.2-6Q52.2-4.85 52-4L52-4ZM77.99-12Q78.19-11.2 78.19-10L78.19-10Q78.19-8.85 77.99-8L77.99-8Q78.19-7.2 78.19-6L78.19-6Q78.19-4.85 77.99-4L77.99-4 75.99-4Q76.19-3.2 76.19-2L76.19-2Q76.19-0.85 75.99 0L75.99 0 63.99 0Q63.79-0.85 63.79-2L63.79-2Q63.79-3.2 63.99-4L63.99-4 61.99-4Q61.79-4.85 61.79-6L61.79-6Q61.79-7.2 61.99-8L61.99-8 65.99-8Q66.19-7.2 66.19-6L66.19-6Q66.19-4.85 65.99-4L65.99-4 73.99-4Q73.79-4.85 73.79-6L73.79-6Q73.79-7.2 73.99-8L73.99-8Q73.79-8.85 73.79-10L73.79-10Q73.79-11.2 73.99-12L73.99-12 63.99-12Q63.79-12.85 63.79-14L63.79-14Q63.79-15.2 63.99-16L63.99-16 61.99-16Q61.79-16.85 61.79-18L61.79-18Q61.79-19.2 61.99-20L61.99-20Q61.79-20.85 61.79-22L61.79-22Q61.79-23.2 61.99-24L61.99-24 63.99-24Q63.79-24.85 63.79-26L63.79-26Q63.79-27.2 63.99-28L63.99-28 75.99-28Q76.19-27.2 76.19-26L76.19-26Q76.19-24.85 75.99-24L75.99-24 77.99-24Q78.19-23.2 78.19-22L78.19-22Q78.19-20.85 77.99-20L77.99-20 73.99-20Q73.79-20.85 73.79-22L73.79-22Q73.79-23.2 73.99-24L73.99-24 65.99-24Q66.19-23.2 66.19-22L66.19-22Q66.19-20.85 65.99-20L65.99-20Q66.19-19.2 66.19-18L66.19-18Q66.19-16.85 65.99-16L65.99-16 75.99-16Q76.19-15.2 76.19-14L76.19-14Q76.19-12.85 75.99-12L75.99-12 77.99-12ZM97.99-24Q98.19-23.2 98.19-22L98.19-22Q98.19-20.85 97.99-20L97.99-20Q98.19-19.2 98.19-18L98.19-18Q98.19-16.85 97.99-16L97.99-16Q98.19-15.2 98.19-14L98.19-14Q98.19-12.85 97.99-12L97.99-12Q98.19-11.2 98.19-10L98.19-10Q98.19-8.85 97.99-8L97.99-8Q98.19-7.2 98.19-6L98.19-6Q98.19-4.85 97.99-4L97.99-4Q98.19-3.2 98.19-2L98.19-2Q98.19-0.85 97.99 0L97.99 0 93.99 0Q93.79-0.85 93.79-2L93.79-2Q93.79-3.2 93.99-4L93.99-4Q93.79-4.85 93.79-6L93.79-6Q93.79-7.2 93.99-8L93.99-8Q93.79-8.85 93.79-10L93.79-10Q93.79-11.2 93.99-12L93.99-12 85.99-12Q86.19-11.2 86.19-10L86.19-10Q86.19-8.85 85.99-8L85.99-8Q86.19-7.2 86.19-6L86.19-6Q86.19-4.85 85.99-4L85.99-4Q86.19-3.2 86.19-2L86.19-2Q86.19-0.85 85.99 0L85.99 0 81.99 0Q81.79-0.85 81.79-2L81.79-2Q81.79-3.2 81.99-4L81.99-4Q81.79-4.85 81.79-6L81.79-6Q81.79-7.2 81.99-8L81.99-8Q81.79-8.85 81.79-10L81.79-10Q81.79-11.2 81.99-12L81.99-12Q81.79-12.85 81.79-14L81.79-14Q81.79-15.2 81.99-16L81.99-16Q81.79-16.85 81.79-18L81.79-18Q81.79-19.2 81.99-20L81.99-20Q81.79-20.85 81.79-22L81.79-22Q81.79-23.2 81.99-24L81.99-24Q81.79-24.85 81.79-26L81.79-26Q81.79-27.2 81.99-28L81.99-28 85.99-28Q86.19-27.2 86.19-26L86.19-26Q86.19-24.85 85.99-24L85.99-24Q86.19-23.2 86.19-22L86.19-22Q86.19-20.85 85.99-20L85.99-20Q86.19-19.2 86.19-18L86.19-18Q86.19-16.85 85.99-16L85.99-16 93.99-16Q93.79-16.85 93.79-18L93.79-18Q93.79-19.2 93.99-20L93.99-20Q93.79-20.85 93.79-22L93.79-22Q93.79-23.2 93.99-24L93.99-24Q93.79-24.85 93.79-26L93.79-26Q93.79-27.2 93.99-28L93.99-28 97.99-28Q98.19-27.2 98.19-26L98.19-26Q98.19-24.85 97.99-24L97.99-24Z" opacity="1" transform="matrix(1,0,0,1,0,0)" fill="#ffffff" class="wordmark-text-0" data-fill-palette-color="primary" id="text-0"></path></svg></g></svg></g></svg></g></svg></g><g transform="matrix(1,0,0,1,0,3.119593265925303)"><svg viewBox="0 0 63.1775267645908 64.75747404906224" height="64.75747404906224" width="63.1775267645908"><g><svg xmlns="http://www.w3.org/2000/svg" viewBox="1.9999992014340056 1.9999992014340058 20.000000798565996 20.500161988301446" x="0" y="0" height="64.75747404906224" width="63.1775267645908" class="icon-icon-0" id="icon-0"><path fill-rule="evenodd" clip-rule="evenodd" d="M2.146 2.146A0.5 0.5 0 0 1 2.5 2H21.5A0.5 0.5 0 0 1 22 2.5V14.5A0.5 0.5 0 0 1 21.5 15H17.43A1.73 1.73 0 0 1 16.787 15.91L16.777 15.916 16.771 15.919 16.77 15.922S16.767 15.921 16.5 15.5L16.77 15.921A0.5 0.5 0 0 1 16.5 16H15.86L15.48 17.14C15.246 18.09 15.124 19.295 15.063 20.28A33 33 0 0 0 15 21.873V22M14.806 16H9.194L9.464 16.811C9.62 17.144 9.717 17.641 9.784 18.136 9.858 18.67 9.906 19.279 9.938 19.847 9.959 20.244 9.973 20.626 9.983 20.954L10.405 20.605A0.5 0.5 0 0 1 11.034 20.6L11.994 21.357 12.904 20.605A0.5 0.5 0 0 1 13.534 20.6L14.024 20.987C14.034 20.757 14.046 20.497 14.064 20.219 14.127 19.21 14.253 17.924 14.515 16.879L14.525 16.842zM15 22A0.5 0.5 0 0 1 14.19 22.392L13.23 21.634 12.318 22.386A0.5 0.5 0 0 1 11.69 22.392L10.73 21.634 9.818 22.386A0.5 0.5 0 0 1 9 22V21.957A28 28 0 0 0 8.992 21.369 42 42 0 0 0 8.938 19.903 21 21 0 0 0 8.794 18.27C8.723 17.752 8.637 17.39 8.553 17.224L8.526 17.158 8.14 16H7.5A0.5 0.5 0 0 1 7.31 15.962L7.5 15.5 7.31 15.962H7.307L7.304 15.96 7.298 15.957 7.284 15.952A1 1 0 0 1 7.142 15.87 1.3 1.3 0 0 1 6.865 15.617 1.55 1.55 0 0 1 6.56 15H2.5A0.5 0.5 0 0 1 2 14.5V2.5A0.5 0.5 0 0 1 2.146 2.146M6.56 14C6.624 13.74 6.737 13.537 6.865 13.383A1.3 1.3 0 0 1 7.246 13.068L7.284 13.049 7.298 13.043 7.304 13.04 7.307 13.039H7.31L7.5 13.5 7.31 13.038A0.5 0.5 0 0 1 7.5 13H8V7.5A0.5 0.5 0 0 1 8.5 7H15.5A0.5 0.5 0 0 1 16 7.5V13H16.5A0.5 0.5 0 0 1 16.768 13.078L16.5 13.5 16.768 13.078 16.77 13.08 16.772 13.081 16.776 13.083 16.787 13.091 16.817 13.11A1.7 1.7 0 0 1 17.43 14H21V3.001H3V14zM16.313 14H7.653L7.636 14.021C7.585 14.081 7.5 14.218 7.5 14.5S7.585 14.919 7.635 14.979L7.654 15H16.314L16.351 14.954A0.73 0.73 0 0 0 16.5 14.5 0.73 0.73 0 0 0 16.313 14M15 13H9V8H15z" fill="#ffffff" data-fill-palette-color="accent"></path></svg></g></svg></g></svg></g></svg></g><path d="M193.782 90.85L193.782 30.955 8.492 30.955 8.492 216.245 193.782 216.245 193.782 156.35 188.958 156.35 188.958 211.42 13.317 211.42 13.317 35.78 188.958 35.78 188.958 90.85Z" fill="#ffffff" stroke="transparent" data-fill-palette-color="tertiary"></path></svg></g><defs></defs></svg><rect width="395.52" height="247.2" fill="none" stroke="none" visibility="hidden"></rect></g></svg></g></svg>